<?xml version="1.0" standalone="no"?>
<!DOCTYPE svg PUBLIC "-//W3C//DTD SVG 20010904//EN"
 "http://www.w3.org/TR/2001/REC-SVG-20010904/DTD/svg10.dtd">
<svg version="1.0" xmlns="http://www.w3.org/2000/svg"
 width="134.000000pt" height="271.000000pt" viewBox="0 0 134.000000 271.000000"
 preserveAspectRatio="xMidYMid meet">

<g transform="translate(0.000000,271.000000) scale(0.100000,-0.100000)"
fill="#000000" stroke="none">
<path d="M220 2701 c0 -4 -14 -6 -30 -5 -17 1 -37 -4 -44 -12 -8 -7 -20 -15
-27 -16 -24 -5 -63 -71 -65 -110 -1 -21 3 -38 8 -38 5 0 6 -5 3 -11 -4 -5 7
-23 23 -39 17 -16 28 -31 24 -34 -3 -3 0 -6 7 -6 6 0 35 -24 64 -53 52 -53 62
-81 43 -127 -3 -8 -5 -48 -3 -88 1 -39 -1 -72 -5 -72 -4 0 -3 -12 3 -27 5 -14
6 -29 2 -32 -5 -3 -7 -17 -6 -31 3 -33 -17 -110 -29 -110 -5 0 -6 -4 -3 -10 3
-5 1 -10 -5 -10 -6 0 -8 -4 -5 -10 3 -5 2 -10 -4 -10 -9 0 -20 -22 -22 -45 0
-5 -6 -17 -13 -25 -7 -8 -20 -28 -28 -45 -8 -16 -27 -51 -41 -77 -15 -26 -27
-54 -27 -62 0 -9 -5 -16 -11 -16 -5 0 -7 -4 -4 -10 3 -5 2 -10 -4 -10 -5 0
-10 -12 -10 -27 -1 -16 -2 -35 -2 -43 -3 -38 13 -113 28 -137 27 -41 88 -103
101 -103 9 0 10 -5 3 -18 -5 -10 -8 -27 -7 -38 2 -10 1 -23 -3 -29 -3 -5 -6
-12 -6 -15 -1 -3 -4 -23 -9 -45 -4 -22 -9 -55 -11 -73 -2 -18 -6 -36 -9 -40
-3 -5 -7 -35 -11 -68 -6 -60 -12 -99 -16 -99 -1 0 -3 -9 -4 -20 -8 -64 -17
-119 -20 -125 -2 -4 -4 -83 -4 -176 -1 -201 -1 -193 -1 -246 -1 -24 1 -50 3
-58 2 -8 7 -28 12 -45 4 -16 14 -36 23 -42 9 -7 12 -13 7 -13 -15 0 49 -62 75
-72 53 -21 167 -28 179 -10 3 4 11 7 16 7 36 2 76 39 74 69 0 5 5 12 13 17 9
6 13 36 14 109 0 84 4 105 21 128 44 60 135 74 217 33 26 -14 51 -32 54 -40 3
-9 11 -23 18 -32 8 -8 15 -24 17 -35 1 -10 6 -25 10 -31 5 -7 6 -13 3 -13 -4
0 3 -17 14 -37 11 -21 20 -42 20 -48 0 -15 81 -101 108 -115 55 -27 187 2 217
49 21 33 42 117 44 176 1 33 3 79 4 103 1 23 0 42 -3 42 -3 0 -6 42 -6 93 -1
93 -12 278 -20 352 -2 22 -7 74 -9 115 -2 41 -7 103 -9 138 -3 37 -1 60 5 57
5 -4 9 -1 9 4 0 6 5 11 10 11 6 0 27 18 48 39 50 53 73 81 67 81 -3 0 2 11 10
24 28 43 34 112 16 198 -7 32 -19 64 -27 72 -8 8 -17 29 -21 46 -3 18 -12 34
-19 37 -8 3 -11 9 -8 14 3 5 0 9 -5 9 -6 0 -11 7 -11 15 0 8 -4 15 -10 15 -5
0 -12 11 -16 25 -3 14 -11 25 -17 25 -6 0 -8 3 -4 6 5 6 -17 35 -61 80 -13 13
-20 24 -16 24 3 0 2 6 -4 13 -5 6 -10 46 -10 87 0 41 -1 80 -2 85 -1 6 -2 14
0 20 7 37 6 75 -2 75 -5 0 -5 6 0 16 5 9 7 25 4 36 -5 19 12 37 117 126 71 61
102 95 97 108 -3 7 1 20 9 30 9 12 10 26 4 41 -5 13 -6 23 -3 23 3 0 -7 16
-22 35 -47 62 -121 83 -189 54 -16 -7 -34 -13 -39 -13 -6 -1 -30 -21 -54 -45
l-44 -43 -70 6 c-38 3 -73 8 -78 11 -5 3 -93 7 -195 9 -208 5 -181 -3 -275 86
-33 32 -130 77 -130 61z m526 -450 c21 -15 55 -54 73 -86 34 -55 35 -62 39
-175 5 -134 -5 -177 -49 -214 -81 -69 -248 -26 -300 77 -30 58 -37 174 -15
251 20 67 73 131 131 157 55 25 76 24 121 -10z m-276 -66 c0 -12 -14 -15 -70
-15 -56 0 -70 3 -70 15 0 12 14 15 70 15 56 0 70 -3 70 -15z m488 -2 c13 -26
4 -43 -23 -43 -27 0 -40 26 -24 46 16 19 37 17 47 -3z"/>
<path d="M557 2053 c-16 -15 -5 -43 20 -55 16 -7 39 -30 52 -51 31 -47 51 -47
82 1 13 20 34 41 47 47 24 10 37 38 27 55 -7 11 -217 14 -228 3z"/>
<path d="M761 1854 c-19 -13 -42 -24 -52 -24 -22 0 -25 -18 -6 -26 30 -11 124
46 111 67 -7 13 -15 10 -53 -17z"/>
</g>
</svg>
