<?xml version="1.0" standalone="no"?>
<!DOCTYPE svg PUBLIC "-//W3C//DTD SVG 20010904//EN"
 "http://www.w3.org/TR/2001/REC-SVG-20010904/DTD/svg10.dtd">
<svg version="1.0" xmlns="http://www.w3.org/2000/svg"
 width="1444.000000pt" height="1444.000000pt" viewBox="0 0 1444.000000 1444.000000"
 preserveAspectRatio="xMidYMid meet">
<metadata>
Created by potrace 1.14, written by Peter Selinger 2001-2017
</metadata>
<g transform="translate(0.000000,1444.000000) scale(0.100000,-0.100000)"
fill="#000000" stroke="none">
<path d="M4818 14390 c-10 -11 -28 -21 -40 -21 -13 -1 -66 -3 -118 -4 -133 -4
-179 -18 -253 -78 -47 -39 -118 -77 -142 -77 -17 0 -104 -83 -145 -138 -29
-38 -83 -131 -106 -182 -20 -45 -56 -135 -54 -135 1 0 -3 -20 -10 -45 -15 -55
-15 -174 0 -229 7 -28 19 -46 35 -53 17 -8 22 -16 18 -32 -18 -67 18 -137 129
-248 83 -83 113 -126 113 -163 0 -22 5 -31 20 -33 20 -3 66 -23 75 -32 3 -3
30 -25 60 -50 154 -126 321 -296 401 -410 63 -90 99 -180 101 -255 0 -35 -12
-127 -19 -139 -4 -6 -9 -20 -10 -30 -2 -11 -8 -24 -13 -30 -5 -7 -12 -36 -15
-66 -10 -80 -11 -460 -2 -460 5 0 5 -4 2 -10 -3 -5 -8 -69 -10 -142 -6 -168
-6 -171 -28 -192 -9 -10 -15 -21 -13 -25 3 -4 7 -19 9 -32 3 -14 14 -55 26
-92 28 -91 28 -124 2 -174 -19 -36 -23 -61 -26 -175 -4 -153 -9 -189 -41 -313
-13 -49 -26 -98 -28 -107 -15 -56 -59 -135 -86 -150 -27 -15 -29 -20 -20 -43
16 -42 12 -55 -20 -61 -28 -6 -36 -16 -30 -39 10 -35 7 -65 -6 -65 -22 0 -28
-3 -45 -19 -38 -39 -73 -125 -83 -210 -6 -41 -44 -120 -73 -149 -21 -22 -73
-100 -73 -110 0 -6 -4 -12 -9 -14 -4 -1 -38 -60 -74 -129 -36 -69 -82 -157
-102 -195 -21 -38 -51 -96 -69 -129 -17 -33 -33 -62 -36 -65 -3 -3 -12 -18
-20 -35 -8 -16 -21 -38 -29 -47 -8 -10 -11 -18 -7 -18 3 0 -5 -18 -19 -40 -14
-22 -23 -40 -21 -40 3 0 -6 -24 -18 -52 -13 -29 -27 -73 -31 -98 -9 -56 -30
-90 -55 -90 -24 0 -42 -31 -29 -51 16 -26 10 -48 -16 -55 -14 -3 -25 -12 -25
-20 0 -8 -4 -14 -8 -14 -5 0 -9 -6 -10 -12 0 -7 -3 -24 -6 -38 -24 -100 -22
-488 4 -590 4 -19 12 -57 16 -85 10 -69 8 -62 43 -175 36 -113 63 -167 130
-256 156 -209 422 -464 482 -464 10 0 23 -9 29 -20 9 -17 7 -28 -10 -55 -12
-19 -18 -35 -15 -35 4 0 3 -6 -3 -12 -6 -7 -11 -16 -11 -20 -1 -5 -1 -9 -2
-10 -9 -30 -11 -60 -11 -148 1 -91 -3 -111 -25 -160 -14 -30 -27 -66 -29 -80
-5 -28 -20 -109 -30 -155 -16 -82 -45 -245 -49 -280 -2 -22 -9 -69 -14 -105
-5 -36 -12 -83 -15 -105 -10 -74 -25 -144 -39 -177 -8 -18 -17 -49 -20 -68 -4
-19 -9 -44 -11 -55 -2 -11 -7 -45 -10 -76 -4 -31 -8 -65 -10 -75 -2 -11 -7
-46 -10 -79 -4 -33 -9 -76 -11 -95 -2 -19 -7 -60 -10 -90 -7 -69 -15 -138 -21
-170 -3 -14 -7 -45 -10 -70 -3 -25 -10 -53 -15 -62 -5 -9 -8 -21 -7 -25 1 -4
-3 -17 -9 -28 -9 -18 -16 -47 -28 -120 -2 -11 -6 -44 -9 -74 -4 -30 -10 -82
-16 -115 -5 -34 -12 -81 -15 -106 -3 -25 -8 -56 -10 -70 -9 -48 -14 -85 -20
-135 -4 -27 -10 -55 -16 -61 -5 -6 -6 -13 -3 -16 3 -3 0 -26 -6 -49 -7 -24
-14 -62 -16 -84 -9 -93 -15 -589 -18 -1460 -3 -839 1 -1037 21 -1085 3 -8 7
-18 8 -22 2 -5 3 -9 4 -10 2 -2 4 -14 6 -28 25 -152 86 -292 157 -363 48 -47
59 -72 36 -80 -27 -8 77 -131 198 -233 32 -27 64 -54 71 -60 63 -59 205 -117
364 -148 194 -38 503 -54 629 -32 48 8 100 32 100 45 0 12 49 31 95 36 91 9
196 65 277 145 69 69 102 142 107 238 1 8 22 34 47 58 40 37 48 52 60 109 17
82 25 169 29 316 1 64 5 121 9 127 3 6 2 13 -3 16 -6 4 -6 18 -1 36 5 17 5 30
0 30 -5 0 -5 13 0 29 4 15 4 34 0 42 -5 7 -7 17 -4 21 3 4 7 61 9 126 4 110
24 275 35 290 2 1 3 5 5 10 21 75 106 186 209 270 46 38 196 109 268 126 222
55 385 40 676 -59 7 -3 13 -3 15 -2 1 1 16 -8 33 -20 17 -13 42 -27 55 -33 52
-23 171 -105 216 -148 17 -17 45 -60 62 -96 17 -35 48 -86 69 -113 50 -63 81
-131 98 -216 13 -60 48 -153 63 -167 3 -3 6 -27 6 -55 0 -41 11 -71 62 -171
70 -137 110 -231 119 -280 3 -19 10 -34 15 -34 5 0 9 -6 9 -13 0 -19 156 -202
273 -320 245 -247 318 -285 560 -291 82 -2 167 4 247 19 19 4 46 8 60 10 65
10 221 58 285 86 28 13 56 24 62 25 7 1 20 9 29 18 8 9 22 16 30 16 8 0 14 5
14 10 0 6 4 10 10 10 19 0 106 79 137 125 22 33 92 193 98 225 2 11 7 25 10
30 3 5 8 18 10 29 2 10 12 49 23 87 12 38 23 83 26 99 3 17 14 77 25 135 31
169 36 221 46 515 3 88 8 192 10 230 8 161 6 311 -6 340 -21 53 -29 143 -34
405 -7 318 -19 679 -30 853 -8 134 -15 265 -20 352 -9 158 -15 244 -19 296 -9
103 -18 224 -22 274 -2 28 -6 73 -9 100 -3 28 -7 77 -10 110 -9 116 -16 190
-20 235 -3 25 -7 74 -10 110 -14 210 -17 252 -20 325 -3 44 -7 114 -10 155 -6
78 -10 134 -20 285 -3 50 -8 122 -11 160 -10 130 -11 320 -2 353 8 29 11 31
30 21 17 -9 23 -8 31 7 6 11 9 19 7 19 -2 0 2 10 8 22 7 12 33 31 59 43 70 31
217 164 380 347 35 38 79 87 99 109 77 84 124 153 124 179 0 26 27 95 41 105
7 5 79 144 79 154 0 2 5 17 12 33 14 34 11 26 28 98 17 77 18 79 26 150 7 66
7 267 0 330 -18 160 -31 242 -52 337 -3 15 -4 29 -3 30 1 2 -3 13 -10 26 -7
13 -14 33 -16 44 -16 81 -78 222 -117 267 -33 37 -97 184 -99 226 0 3 -6 23
-14 45 -8 22 -14 42 -14 45 -2 26 -55 104 -83 119 -47 28 -48 31 -38 81 5 24
-2 34 -35 45 -38 12 -49 35 -54 107 -1 18 -42 53 -61 53 -15 0 -68 92 -76 133
-9 49 -48 110 -78 122 -17 7 -34 11 -39 8 -11 -7 -4 21 8 29 23 17 -91 183
-210 305 -178 184 -208 221 -200 251 4 15 -2 36 -14 56 -12 18 -22 41 -24 52
-2 10 -7 30 -10 44 -17 69 -25 221 -32 565 -2 132 -7 264 -10 294 -2 29 0 72
5 95 5 22 12 77 16 121 14 161 4 254 -29 263 -16 4 -18 11 -14 38 3 18 13 48
21 66 19 41 26 115 15 171 -12 65 20 125 127 232 97 98 211 205 219 205 3 0
13 8 23 18 10 9 47 42 82 72 35 30 74 64 86 75 12 11 42 36 65 55 24 19 58 50
77 68 19 17 36 32 38 32 12 0 354 333 354 345 0 4 6 13 13 20 26 30 33 41 46
71 7 17 11 47 8 65 -5 48 9 94 48 153 47 71 52 122 23 216 -13 41 -23 90 -21
109 3 31 -17 79 -44 109 -7 7 -20 26 -30 42 -9 17 -21 30 -25 30 -4 0 -8 5 -8
10 0 6 -17 29 -37 52 -188 207 -382 304 -623 312 -133 5 -306 -34 -421 -94
-17 -9 -91 -31 -124 -37 -48 -9 -161 -104 -398 -336 l-137 -135 -58 4 c-151
10 -224 16 -357 29 -100 10 -125 12 -175 19 -99 13 -117 16 -160 27 -131 31
-389 43 -1355 64 -317 7 -495 16 -578 31 -23 4 -49 8 -57 9 -9 0 -20 4 -25 7
-6 3 -28 11 -50 18 -36 11 -120 58 -152 85 -7 5 -26 21 -44 35 -17 14 -57 50
-88 80 -264 253 -324 299 -522 402 -57 30 -108 55 -114 57 -5 1 -23 8 -40 16
-66 28 -115 45 -157 50 -35 5 -46 2 -60 -15z m2589 -2268 c39 -12 117 -54 121
-65 2 -4 8 -5 13 -1 5 3 9 1 9 -4 0 -5 23 -24 51 -42 69 -45 205 -182 289
-293 39 -51 76 -99 83 -107 6 -8 11 -16 9 -17 -1 -2 13 -27 31 -56 18 -28 44
-72 58 -97 13 -25 29 -48 34 -52 7 -5 7 -8 0 -8 -6 0 -6 -3 1 -8 10 -6 55
-118 68 -167 12 -48 24 -140 30 -230 27 -404 26 -1015 -1 -1058 -3 -5 -7 -23
-9 -40 -8 -70 -23 -114 -66 -203 -92 -191 -284 -325 -533 -375 -71 -14 -240
-18 -310 -7 -27 4 -66 10 -86 12 -30 3 -82 16 -139 33 -8 2 -17 5 -20 5 -18 4
-101 36 -107 41 -3 4 -14 7 -23 7 -10 0 -23 7 -30 15 -7 9 -15 13 -18 11 -8
-8 -174 89 -180 105 -2 5 -10 9 -18 9 -19 0 -234 215 -234 235 0 8 -4 15 -8
15 -20 0 -123 226 -137 301 -3 12 -9 36 -15 54 -6 18 -10 37 -9 41 1 5 0 12
-1 17 -4 12 -6 20 -14 72 -14 82 -16 97 -20 167 -3 37 -6 71 -8 75 -6 12 -1
298 6 373 8 74 14 125 16 125 1 0 3 16 5 35 2 19 8 55 14 80 7 25 14 56 17 69
3 13 10 34 16 45 6 12 11 23 10 26 -4 14 110 265 127 280 3 3 20 25 36 50 33
49 36 53 66 90 142 174 271 280 434 359 194 94 328 119 442 83z m-1667 -404
c0 -4 10 -4 23 0 40 13 287 0 345 -19 20 -7 34 -19 38 -34 21 -85 -32 -99
-376 -99 -281 0 -344 11 -356 61 -13 52 27 79 131 88 38 3 70 6 71 8 6 6 124
1 124 -5z m2965 -24 c31 -20 74 -108 80 -160 5 -59 -27 -106 -85 -121 -120
-32 -230 31 -230 130 0 125 139 214 235 151z"/>
<path d="M6877 10974 c-1 -1 -45 -4 -98 -8 -134 -8 -172 -22 -189 -69 -33 -96
17 -184 145 -257 68 -38 192 -154 233 -217 15 -24 30 -43 35 -43 4 0 7 -6 7
-12 1 -23 86 -120 137 -156 55 -39 126 -25 188 35 24 23 46 51 124 159 32 44
77 99 100 122 44 43 128 107 141 107 6 0 31 17 79 55 15 12 51 70 51 83 0 7 3
17 7 21 22 22 12 121 -15 135 -15 8 -67 17 -157 27 -115 12 -777 28 -788 18z"/>
<path d="M7890 9997 c-28 -13 -46 -25 -173 -109 -80 -53 -183 -111 -189 -106
-2 1 -13 -4 -26 -11 -13 -7 -48 -16 -79 -21 -62 -10 -93 -32 -93 -66 0 -26 52
-73 83 -75 65 -4 133 8 207 38 8 4 17 7 20 8 21 5 128 66 187 106 146 99 195
177 143 229 -22 22 -43 24 -80 7z"/>
</g>
</svg>
